<svg width="36" height="31" viewBox="0 0 36 31" fill="none" xmlns="http://www.w3.org/2000/svg">
<path d="M4.50401 30.184C3.39468 28.904 2.45601 27.4533 1.68801 25.832C0.920011 24.1253 0.536011 22.0773 0.536011 19.688C0.536011 16.4453 1.34668 13.288 2.96801 10.216C4.67468 7.144 8.13068 3.77334 13.336 0.104004L15.64 2.664C14.616 4.02934 13.7627 5.69334 13.08 7.65601C12.4827 9.53334 12.184 11.368 12.184 13.16C12.184 15.208 12.4827 16.7867 13.08 17.896C13.6773 18.92 14.5307 20.0293 15.64 21.224V23.4L4.50401 30.184ZM24.344 30.184C23.2347 28.904 22.296 27.4533 21.528 25.832C20.76 24.1253 20.376 22.0773 20.376 19.688C20.376 16.4453 21.1867 13.288 22.808 10.216C24.5147 7.144 27.9707 3.77334 33.176 0.104004L35.48 2.664C34.456 4.02934 33.6027 5.69334 32.92 7.65601C32.3227 9.53334 32.024 11.368 32.024 13.16C32.024 15.208 32.3227 16.7867 32.92 17.896C33.5173 18.92 34.3707 20.0293 35.48 21.224V23.4L24.344 30.184Z" fill="#A3C15E"/>
</svg>
